<svg fill="#FED136" xmlns="http://www.w3.org/2000/svg" data-name="Layer 1" viewBox="0 0 100 100" x="0px" y="0px"><title>cleaning</title><path d="M90.64,55.8l-9.19-8V31H69.14v6.1L58.87,28.19a7.61,7.61,0,0,0-9.83,0L16.21,56.72A2.83,2.83,0,0,0,15.42,60a3.22,3.22,0,0,0,3,1.88H27V88.21a4.29,4.29,0,0,0,4.29,4.29H76.68A4.3,4.3,0,0,0,81,88.21V61.86h7.08a3.79,3.79,0,0,0,3.52-2.22A3.32,3.32,0,0,0,90.64,55.8Zm-38.48,26H42.3V72h9.86Zm0-13.51H42.3V58.45h9.86ZM66.35,81.83H56.49V72h9.86Zm0-13.51H56.49V58.45h9.86Z"></path><circle cx="17.1" cy="36.88" r="8.93"></circle><circle cx="44.31" cy="16.43" r="8.93"></circle><circle cx="22.7" cy="14.27" r="5.87"></circle></svg>